<svg xmlns="http://www.w3.org/2000/svg" xmlns:xlink="http://www.w3.org/1999/xlink"><defs><clipPath id="clip0_2_212"><path d="M0 0h58v58H0z"/></clipPath><clipPath id="clip0_2_384"><path d="M0 0h19.424v19.447H0z" transform="translate(.065 .063)"/></clipPath></defs><symbol id="benefits-1" viewBox="0 0 58 58"><path d="M53.94 32.505l-1.502-6.008a.908.908 0 00.718-.888v-.969a3.819 3.819 0 00-3.814-3.814h-6.84v-1.998a1.879 1.879 0 00-1.878-1.877h-12.72l7.73-3.092a.908.908 0 00-.675-1.686l-6.33 2.531c1.93-1.237 3.838-2.599 4.564-3.552a4.234 4.234 0 00-.798-5.927 4.234 4.234 0 00-5.928.798c-1.033 1.355-2.397 5.162-3.28 7.845-.882-2.682-2.245-6.49-3.278-7.845a4.234 4.234 0 00-5.928-.798 4.234 4.234 0 00-.798 5.928c.726.952 2.634 2.314 4.563 3.551l-6.33-2.531a.908.908 0 10-.674 1.686l7.73 3.092H5.752a1.879 1.879 0 00-1.877 1.877v16.468a.908.908 0 001.816 0V18.828a.06.06 0 01.06-.06h34.873a.06.06 0 01.06.06v16.468a.908.908 0 001.817 0v-1.03h10.718a2.971 2.971 0 012.822 2.06h-2.824a.908.908 0 00-.908.907v1.938a2.849 2.849 0 002.845 2.845h1.03v3.996h-2.375a5.76 5.76 0 00-5.435-3.875 5.76 5.76 0 00-5.436 3.875h-.437V39.17a.908.908 0 00-1.816 0v6.842H21.843a5.76 5.76 0 00-5.436-3.875 5.76 5.76 0 00-5.435 3.875h-5.22a.06.06 0 01-.061-.06v-1.999h3.935a.908.908 0 000-1.816H.908a.908.908 0 100 1.816h2.967v1.998c0 1.035.842 1.877 1.877 1.877h4.905l-.001.06a5.758 5.758 0 005.751 5.752 5.758 5.758 0 005.752-5.751l-.002-.06h20.466l-.001.06a5.758 5.758 0 005.752 5.751 5.758 5.758 0 005.751-5.751l-.002-.06h2.969a.908.908 0 00.908-.91v-9.686a4.79 4.79 0 00-4.06-4.728zM19.586 13.714c-3.582-2.226-4.644-3.25-4.96-3.663a2.416 2.416 0 01.456-3.382 2.41 2.41 0 013.382.455c.879 1.152 2.255 5.03 3.163 7.823a99.872 99.872 0 01-2.04-1.233zm5.163 1.233c.908-2.794 2.284-6.67 3.162-7.823a2.416 2.416 0 013.382-.455 2.416 2.416 0 01.456 3.382c-.315.412-1.377 1.437-4.96 3.663-.722.45-1.427.872-2.04 1.233zM42.5 22.642h6.841a2 2 0 011.998 1.998v.06h-8.839v-2.058zm0 9.808v-5.933h8.07l1.483 5.933h-9.553zM16.407 51.824a3.94 3.94 0 01-3.935-3.935 3.94 3.94 0 013.935-3.936 3.94 3.94 0 013.935 3.936 3.94 3.94 0 01-3.935 3.935zm31.967 0a3.94 3.94 0 01-3.936-3.935 3.94 3.94 0 013.936-3.936 3.94 3.94 0 013.935 3.936 3.94 3.94 0 01-3.935 3.935zm7.81-11.624h-1.03a1.03 1.03 0 01-1.029-1.03v-1.029h2.059V40.2z"/><path d="M16.407 46.012a1.879 1.879 0 00-1.876 1.877c0 1.034.841 1.876 1.876 1.876a1.879 1.879 0 001.877-1.876 1.879 1.879 0 00-1.877-1.877zM48.373 46.012a1.879 1.879 0 00-1.876 1.877c0 1.034.842 1.876 1.876 1.876a1.879 1.879 0 001.877-1.876 1.879 1.879 0 00-1.877-1.877zM37.718 42.137H24.157a.908.908 0 100 1.816h13.561a.908.908 0 000-1.816zM14.47 38.262H2.846a.908.908 0 000 1.817H14.47a.908.908 0 000-1.817zM14.47 24.7h-3.875a.908.908 0 00-.908.909v7.75a.908.908 0 101.816 0V30.39h1.998a.908.908 0 000-1.816h-1.998v-2.058h2.967a.908.908 0 000-1.817zM21.616 30.817a3.33 3.33 0 001.511-2.787 3.334 3.334 0 00-3.33-3.33h-2.421a.908.908 0 00-.909.909v7.75a.908.908 0 101.817 0V31.36h1.512l1.667 2.502a.907.907 0 101.511-1.008l-1.358-2.037zm-1.819-1.273h-1.513v-3.027h1.513c.835 0 1.514.679 1.514 1.513 0 .835-.679 1.514-1.514 1.514zM29 32.45h-2.967v-2.062c.02.002.04.004.06.004h1.938a.908.908 0 000-1.817h-1.937l-.06.003v-2.061H29a.908.908 0 000-1.817h-3.875a.908.908 0 00-.908.909v7.75c0 .5.406.907.908.907H29a.908.908 0 000-1.816zM35.781 32.45h-2.967v-2.058h1.03a.908.908 0 000-1.817h-1.03v-2.058h2.967a.908.908 0 000-1.817h-3.875a.908.908 0 00-.908.909v7.75c0 .5.407.907.908.907h3.875a.908.908 0 000-1.816z"/></symbol><symbol id="benefits-2" viewBox="0 0 60 60"><mask id="a" width="60" height="60" x="0" y="0" maskUnits="userSpaceOnUse"><path d="M0 0h60v60H0z"/><path d="M7.425 18.725a2.892 2.892 0 00-1.592 2.573v6.767c0 1.068.866 1.933 1.934 1.933v26.1a2.9 2.9 0 002.9 2.9h38.666a2.9 2.9 0 002.9-2.9v-26.1a1.933 1.933 0 001.934-1.933v-6.767a2.892 2.892 0 00-1.591-2.573c4.021-2.578 6.218-7.391 6.341-7.667a.967.967 0 00-.884-1.36h-3.866V5.832a.967.967 0 00-1.587-.743l-3.227 2.695a15.703 15.703 0 00-6.4-6.316 3.76 3.76 0 00-2.014-.463C34.464 1.41 31.363 6.643 30 10.182c-1.369-3.535-4.47-8.754-10.939-9.158-.7-.04-1.4.119-2.014.458a15.71 15.71 0 00-6.393 6.301L7.42 5.088a.967.967 0 00-1.586.744v3.866H1.967a.967.967 0 00-.884 1.36c.123.276 2.32 5.089 6.342 7.667zm15.808 1.607v7.733H7.768v-6.767c0-.533.433-.966.966-.966h14.5zm1.866-5.688a13.831 13.831 0 01-4.465-7.434c3.054 1.338 4.65 4.981 5.228 6.603a4.853 4.853 0 00-.763.83zm1.035 2.788a2.9 2.9 0 012.9-2.9h1.933a2.9 2.9 0 012.9 2.9v.966h-7.733v-.966zm8.7 10.633h-9.667v-7.733h9.666v7.733zm-.696-14.252c.58-1.622 2.175-5.265 5.228-6.603a13.823 13.823 0 01-4.465 7.434 4.853 4.853 0 00-.763-.83zM9.7 56.098v-26.1h15.467v27.067h-14.5a.967.967 0 01-.967-.967zm17.4.967V29.998h5.8v27.067h-5.8zm23.2-.967a.967.967 0 01-.966.967h-14.5V29.998H50.3v26.1zm.967-35.766c.534 0 .966.433.966.966v6.767H36.767v-7.733h14.5zm1.933-8.7h3.233c-1.344 2.313-4.519 6.766-9.033 6.766h-2.165a20.703 20.703 0 004.284-4.785 4.801 4.801 0 00.593-3.944l2.121-1.77v2.766c0 .534.433.967.967.967zm-12.14-8.7c.34-.015.678.066.974.234 1.425.773 4.88 2.982 6.18 6.877a2.893 2.893 0 01-.313 2.514c-1.08 1.652-3.331 4.576-6.369 5.841H35.8v-.966c0-.322-.032-.643-.096-.958 3.963-2.803 5.337-7.683 5.751-9.729a1.43 1.43 0 00-.435-1.341 1.455 1.455 0 00-1.397-.336c-4.204 1.184-6.33 5.466-7.195 7.782a4.776 4.776 0 00-1.228-.227c.714-2.673 3.144-9.268 9.86-9.691zm-29.273 7.125c1.296-3.89 4.753-6.1 6.178-6.87a1.85 1.85 0 01.976-.234c6.71.42 9.14 6.995 9.86 9.667a4.77 4.77 0 00-1.227.227c-.864-2.32-2.991-6.598-7.195-7.782a1.463 1.463 0 00-1.397.336c-.37.34-.534.85-.432 1.341.409 2.049 1.784 6.931 5.747 9.732a4.809 4.809 0 00-.097.958v.966h-5.732c-3.037-1.263-5.29-4.184-6.369-5.835a2.883 2.883 0 01-.312-2.506zM6.8 11.632a.967.967 0 00.967-.967v-2.77l2.126 1.77a4.8 4.8 0 00.59 3.955 20.669 20.669 0 004.28 4.778H12.6c-4.502 0-7.681-4.452-9.03-6.766H6.8z"/></mask><path d="M7.425 18.725a2.892 2.892 0 00-1.592 2.573v6.767c0 1.068.866 1.933 1.934 1.933v26.1a2.9 2.9 0 002.9 2.9h38.666a2.9 2.9 0 002.9-2.9v-26.1a1.933 1.933 0 001.934-1.933v-6.767a2.892 2.892 0 00-1.591-2.573c4.021-2.578 6.218-7.391 6.341-7.667a.967.967 0 00-.884-1.36h-3.866V5.832a.967.967 0 00-1.587-.743l-3.227 2.695a15.703 15.703 0 00-6.4-6.316 3.76 3.76 0 00-2.014-.463C34.464 1.41 31.363 6.643 30 10.182c-1.369-3.535-4.47-8.754-10.939-9.158-.7-.04-1.4.119-2.014.458a15.71 15.71 0 00-6.393 6.301L7.42 5.088a.967.967 0 00-1.586.744v3.866H1.967a.967.967 0 00-.884 1.36c.123.276 2.32 5.089 6.342 7.667zm15.808 1.607v7.733H7.768v-6.767c0-.533.433-.966.966-.966h14.5zm1.866-5.688a13.831 13.831 0 01-4.465-7.434c3.054 1.338 4.65 4.981 5.228 6.603a4.853 4.853 0 00-.763.83zm1.035 2.788a2.9 2.9 0 012.9-2.9h1.933a2.9 2.9 0 012.9 2.9v.966h-7.733v-.966zm8.7 10.633h-9.667v-7.733h9.666v7.733zm-.696-14.252c.58-1.622 2.175-5.265 5.228-6.603a13.823 13.823 0 01-4.465 7.434 4.853 4.853 0 00-.763-.83zM9.7 56.098v-26.1h15.467v27.067h-14.5a.967.967 0 01-.967-.967zm17.4.967V29.998h5.8v27.067h-5.8zm23.2-.967a.967.967 0 01-.966.967h-14.5V29.998H50.3v26.1zm.967-35.766c.534 0 .966.433.966.966v6.767H36.767v-7.733h14.5zm1.933-8.7h3.233c-1.344 2.313-4.519 6.766-9.033 6.766h-2.165a20.703 20.703 0 004.284-4.785 4.801 4.801 0 00.593-3.944l2.121-1.77v2.766c0 .534.433.967.967.967zm-12.14-8.7c.34-.015.678.066.974.234 1.425.773 4.88 2.982 6.18 6.877a2.893 2.893 0 01-.313 2.514c-1.08 1.652-3.331 4.576-6.369 5.841H35.8v-.966c0-.322-.032-.643-.096-.958 3.963-2.803 5.337-7.683 5.751-9.729a1.43 1.43 0 00-.435-1.341 1.455 1.455 0 00-1.397-.336c-4.204 1.184-6.33 5.466-7.195 7.782a4.776 4.776 0 00-1.228-.227c.714-2.673 3.144-9.268 9.86-9.691zm-29.273 7.125c1.296-3.89 4.753-6.1 6.178-6.87a1.85 1.85 0 01.976-.234c6.71.42 9.14 6.995 9.86 9.667a4.77 4.77 0 00-1.227.227c-.864-2.32-2.991-6.598-7.195-7.782a1.463 1.463 0 00-1.397.336c-.37.34-.534.85-.432 1.341.409 2.049 1.784 6.931 5.747 9.732a4.809 4.809 0 00-.097.958v.966h-5.732c-3.037-1.263-5.29-4.184-6.369-5.835a2.883 2.883 0 01-.312-2.506zM6.8 11.632a.967.967 0 00.967-.967v-2.77l2.126 1.77a4.8 4.8 0 00.59 3.955 20.669 20.669 0 004.28 4.778H12.6c-4.502 0-7.681-4.452-9.03-6.766H6.8z"/><path stroke-width=".5" d="M7.425 18.725a2.892 2.892 0 00-1.592 2.573v6.767c0 1.068.866 1.933 1.934 1.933v26.1a2.9 2.9 0 002.9 2.9h38.666a2.9 2.9 0 002.9-2.9v-26.1a1.933 1.933 0 001.934-1.933v-6.767a2.892 2.892 0 00-1.591-2.573c4.021-2.578 6.218-7.391 6.341-7.667a.967.967 0 00-.884-1.36h-3.866V5.832a.967.967 0 00-1.587-.743l-3.227 2.695a15.703 15.703 0 00-6.4-6.316 3.76 3.76 0 00-2.014-.463C34.464 1.41 31.363 6.643 30 10.182c-1.369-3.535-4.47-8.754-10.939-9.158-.7-.04-1.4.119-2.014.458a15.71 15.71 0 00-6.393 6.301L7.42 5.088a.967.967 0 00-1.586.744v3.866H1.967a.967.967 0 00-.884 1.36c.123.276 2.32 5.089 6.342 7.667zm15.808 1.607v7.733H7.768v-6.767c0-.533.433-.966.966-.966h14.5zm1.866-5.688a13.831 13.831 0 01-4.465-7.434c3.054 1.338 4.65 4.981 5.228 6.603a4.853 4.853 0 00-.763.83zm1.035 2.788a2.9 2.9 0 012.9-2.9h1.933a2.9 2.9 0 012.9 2.9v.966h-7.733v-.966zm8.7 10.633h-9.667v-7.733h9.666v7.733zm-.696-14.252c.58-1.622 2.175-5.265 5.228-6.603a13.823 13.823 0 01-4.465 7.434 4.853 4.853 0 00-.763-.83zM9.7 56.098v-26.1h15.467v27.067h-14.5a.967.967 0 01-.967-.967zm17.4.967V29.998h5.8v27.067h-5.8zm23.2-.967a.967.967 0 01-.966.967h-14.5V29.998H50.3v26.1zm.967-35.766c.534 0 .966.433.966.966v6.767H36.767v-7.733h14.5zm1.933-8.7h3.233c-1.344 2.313-4.519 6.766-9.033 6.766h-2.165a20.703 20.703 0 004.284-4.785 4.801 4.801 0 00.593-3.944l2.121-1.77v2.766c0 .534.433.967.967.967zm-12.14-8.7c.34-.015.678.066.974.234 1.425.773 4.88 2.982 6.18 6.877a2.893 2.893 0 01-.313 2.514c-1.08 1.652-3.331 4.576-6.369 5.841H35.8v-.966c0-.322-.032-.643-.096-.958 3.963-2.803 5.337-7.683 5.751-9.729a1.43 1.43 0 00-.435-1.341 1.455 1.455 0 00-1.397-.336c-4.204 1.184-6.33 5.466-7.195 7.782a4.776 4.776 0 00-1.228-.227c.714-2.673 3.144-9.268 9.86-9.691zm-29.273 7.125c1.296-3.89 4.753-6.1 6.178-6.87a1.85 1.85 0 01.976-.234c6.71.42 9.14 6.995 9.86 9.667a4.77 4.77 0 00-1.227.227c-.864-2.32-2.991-6.598-7.195-7.782a1.463 1.463 0 00-1.397.336c-.37.34-.534.85-.432 1.341.409 2.049 1.784 6.931 5.747 9.732a4.809 4.809 0 00-.097.958v.966h-5.732c-3.037-1.263-5.29-4.184-6.369-5.835a2.883 2.883 0 01-.312-2.506zM6.8 11.632a.967.967 0 00.967-.967v-2.77l2.126 1.77a4.8 4.8 0 00.59 3.955 20.669 20.669 0 004.28 4.778H12.6c-4.502 0-7.681-4.452-9.03-6.766H6.8z" mask="url(#a)"/><path stroke-width=".25" d="M12.6 31.806c-.603 0-1.092.489-1.092 1.092v1.933a1.092 1.092 0 102.184 0v-1.933c0-.603-.489-1.092-1.092-1.092zM12.6 37.606c-.603 0-1.092.489-1.092 1.092v15.466a1.092 1.092 0 102.184 0V38.698c0-.603-.489-1.092-1.092-1.092zM47.4 35.923c.603 0 1.092-.49 1.092-1.092v-1.933a1.092 1.092 0 00-2.183 0v1.933c0 .603.488 1.092 1.091 1.092zM47.4 55.256c.603 0 1.092-.489 1.092-1.092V38.698a1.092 1.092 0 00-2.183 0v15.466c0 .603.488 1.092 1.091 1.092z"/></symbol><symbol id="benefits-3" viewBox="0 0 58 58"><g clip-path="url(#clip0_2_212)"><path d="M55.364 29.243v-8.151c0-2.765-2.144-5.013-4.853-5.23L42.94 2.638a5.21 5.21 0 00-3.19-2.46 5.18 5.18 0 00-3.968.531L9.831 15.82H5.274A5.278 5.278 0 000 21.09v31.636A5.278 5.278 0 005.274 58H50.09a5.278 5.278 0 005.273-5.273v-8.151C56.894 44.03 58 42.58 58 40.863v-7.91c0-1.715-1.105-3.165-2.636-3.71zM47.447 15.82H35.958l8.617-5.017 2.872 5.017zm-4.182-7.305L30.72 15.82h-5.204l16.45-9.577 1.3 2.272zM37.11 2.99a2.55 2.55 0 011.958-.264c.674.18 1.235.615 1.584 1.224l.002.005-20.379 11.865h-5.204l22.04-12.83zm15.617 49.738a2.64 2.64 0 01-2.636 2.637H5.274a2.64 2.64 0 01-2.637-2.637V21.092a2.64 2.64 0 012.637-2.637H50.09a2.64 2.64 0 012.636 2.637V29h-7.909c-4.36 0-7.909 3.548-7.909 7.91 0 4.36 3.548 7.908 7.91 7.908h7.908v7.91zm2.637-11.863a1.32 1.32 0 01-1.318 1.318h-9.228a5.278 5.278 0 01-5.272-5.273 5.278 5.278 0 015.272-5.272h9.228c.727 0 1.318.59 1.318 1.318v7.909z"/><path d="M44.818 34.273a2.64 2.64 0 00-2.636 2.636 2.64 2.64 0 002.636 2.637 2.64 2.64 0 002.636-2.636 2.64 2.64 0 00-2.636-2.637z"/></g></symbol><symbol id="benefits-4" viewBox="0 0 58 58"><path d="M49.96 23.975h-.143v-3.517C49.817 9.159 40.658 0 29.36 0 18.061 0 8.901 9.16 8.901 20.458v3.517h-.86c-3.16 0-5.6 2.8-5.6 6.03v8.973a5.67 5.67 0 005.6 5.814h5.31a1.364 1.364 0 001.293-1.508V25.699c0-.861-.502-1.723-1.292-1.723h-1.58v-3.517c0-9.713 7.875-17.587 17.587-17.587 9.713 0 17.587 7.874 17.587 17.587v3.517h-1.58c-.789 0-1.291.861-1.291 1.723v17.587a1.364 1.364 0 001.292 1.507h1.65l-.143.215a11.341 11.341 0 01-9.116 4.522 7.106 7.106 0 00-14.07 1.364A7.178 7.178 0 0030.867 58a7.394 7.394 0 005.168-2.225 6.318 6.318 0 001.723-3.446 14.213 14.213 0 0011.413-5.67l1.364-2.01c3.087-.216 5.025-2.154 5.025-4.954v-8.973c0-3.086-2.297-6.747-5.6-6.747zM11.774 41.921H8.04a2.8 2.8 0 01-2.728-2.943v-8.973c0-1.651 1.149-3.159 2.728-3.159h3.733v15.075zm22.18 11.844a4.235 4.235 0 01-3.086 1.364 4.379 4.379 0 01-4.307-4.235 4.235 4.235 0 118.47-.004v.004a3.805 3.805 0 01-1.077 2.87zm18.735-14.07c0 1.939-1.866 2.226-2.727 2.226h-3.015V26.846h3.015c1.579 0 2.727 2.226 2.727 3.877v8.973z"/></symbol><symbol id="card-icon-1" viewBox="0 0 24 24"><path d="M11.777 21.156l-8.24-8.25a5.838 5.838 0 01-.001-8.252 5.824 5.824 0 018.241 0 5.828 5.828 0 018.24 0 5.844 5.844 0 010 8.25l-8.24 8.252zM7.657 4.89a3.882 3.882 0 00-3.59 2.401 3.894 3.894 0 00.842 4.24l6.868 6.875 6.868-6.876a3.89 3.89 0 00-3.408-6.608 3.882 3.882 0 00-2.635 1.817l-.825 1.334-.826-1.334a3.802 3.802 0 00-3.295-1.847V4.89z"/></symbol><symbol id="card-icon-2" viewBox="0 0 20 21"><path d="M18.68 16.167H17.06v-1.62a.81.81 0 00-1.382-.574.811.811 0 00-.237.573v1.62h-1.618a.809.809 0 00-.573 1.384.809.809 0 00.573.238h1.618v1.62a.81.81 0 001.382.573.81.81 0 00.237-.573v-1.62h1.619a.809.809 0 00.572-1.384.809.809 0 00-.572-.237z"/><path d="M17.061 5.633h-2.428c0-1.29-.512-2.526-1.422-3.438a4.853 4.853 0 00-6.868 0 4.865 4.865 0 00-1.422 3.438H2.493a2.427 2.427 0 00-2.428 2.43v8.104A4.059 4.059 0 001.25 19.03a4.05 4.05 0 002.86 1.188h7.285a.809.809 0 00.809-.81.81.81 0 00-.81-.81H4.112a2.427 2.427 0 01-2.428-2.431V8.064a.81.81 0 01.81-.81H4.92v1.62a.81.81 0 001.381.573.81.81 0 00.238-.573v-1.62h6.474v1.62a.81.81 0 001.382.573.81.81 0 00.237-.573v-1.62h2.428a.809.809 0 01.81.81v4.051a.81.81 0 001.381.573.81.81 0 00.237-.573V8.064a2.432 2.432 0 00-2.428-2.431zm-10.521 0a3.243 3.243 0 013.237-3.241 3.235 3.235 0 013.237 3.24H6.54z"/></symbol><symbol id="card-icon-3" viewBox="0 0 27 27"><path stroke-width=".3" d="M7.865 7.437a7.993 7.993 0 012.586-1.86c3.13-1.41 6.939-.683 9.307 2.022l1.635-1.401c.091-.078.237-.006.246.116l.407 5.488c.005.091-.08.163-.166.142l-5.35-1.248c-.122-.03-.168-.183-.077-.26l1.633-1.4a5.794 5.794 0 00-6.11-1.676 5.72 5.72 0 00-2.22 1.31 5.783 5.783 0 00-1.687 3.111 1.102 1.102 0 01-1.336.87 1.113 1.113 0 01-.832-1.303 7.91 7.91 0 011.964-3.91zm11.455 7.037a5.712 5.712 0 01-1.686 3.11 5.757 5.757 0 01-2.22 1.311c-2.127.68-4.548.098-6.11-1.677l1.633-1.398c.09-.078.042-.233-.077-.26l-5.353-1.252c-.09-.019-.174.053-.165.142l.404 5.485c.011.125.154.194.245.116l1.636-1.401c2.364 2.707 6.176 3.438 9.306 2.023a8.072 8.072 0 002.587-1.862 7.87 7.87 0 001.966-3.908 1.113 1.113 0 00-.831-1.302 1.105 1.105 0 00-1.335.873z"/></symbol><symbol id="card-icon-4" viewBox="0 0 20 20"><g clip-path="url(#clip0_2_384)"><path d="M18.9 7.695c-1.256-2.047-4.111-5.48-9.123-5.48S1.91 5.647.655 7.694a3.98 3.98 0 000 4.183c1.255 2.047 4.11 5.48 9.122 5.48s7.867-3.433 9.122-5.48a3.981 3.981 0 000-4.183zm-1.38 3.335C16.44 12.785 14 15.738 9.776 15.738s-6.664-2.953-7.742-4.708a2.366 2.366 0 010-2.486c1.078-1.756 3.518-4.71 7.742-4.71s6.664 2.951 7.742 4.71a2.366 2.366 0 010 2.486z"/><path d="M9.777 5.735a4.043 4.043 0 00-3.739 2.501 4.056 4.056 0 00.877 4.415 4.045 4.045 0 006.909-2.865 4.059 4.059 0 00-1.187-2.863 4.05 4.05 0 00-2.86-1.188zm0 6.482a2.426 2.426 0 01-2.243-1.5 2.434 2.434 0 011.77-3.315 2.425 2.425 0 012.492 1.034 2.433 2.433 0 01-2.02 3.781z"/></g></symbol><symbol id="ic-facebook" viewBox="0 0 10 18"><path d="M2.966 17.795V9.843H.863V6.98h2.103V4.534C2.966 2.612 4.208.848 7.07.848c1.159 0 2.016.11 2.016.11l-.068 2.674s-.874-.008-1.827-.008c-1.032 0-1.198.476-1.198 1.265v2.09H9.1l-.135 2.864H5.993v7.952H2.966z"/></symbol><symbol id="ic-instagram" viewBox="0 0 17 17"><path d="M8.074 6.06A2.69 2.69 0 005.39 8.746a2.69 2.69 0 002.684 2.685 2.69 2.69 0 002.685-2.685 2.69 2.69 0 00-2.685-2.684zm8.052 2.685c0-1.112.01-2.213-.053-3.323-.062-1.289-.356-2.433-1.299-3.375C13.83 1.102 12.688.81 11.4.748 10.288.686 9.186.696 8.076.696c-1.111 0-2.213-.01-3.323.052-1.288.062-2.432.356-3.375 1.299C.434 2.991.142 4.133.08 5.422.017 6.534.027 7.635.027 8.745c0 1.11-.01 2.213.052 3.323.063 1.289.357 2.433 1.3 3.375.944.945 2.086 1.237 3.374 1.3 1.112.062 2.214.052 3.323.052 1.112 0 2.214.01 3.323-.053 1.29-.062 2.433-.356 3.376-1.299.944-.944 1.236-2.086 1.298-3.375.065-1.11.053-2.211.053-3.323zm-8.052 4.13a4.125 4.125 0 01-4.13-4.13 4.125 4.125 0 014.13-4.13 4.125 4.125 0 014.13 4.13 4.125 4.125 0 01-4.13 4.13zm4.3-7.465a.963.963 0 110-1.93.963.963 0 110 1.93z"/></symbol><symbol id="ic-pinterset" viewBox="0 0 14 18"><path d="M.921 6.927c0-.733.128-1.425.38-2.071.242-.628.6-1.204 1.056-1.697a7.17 7.17 0 011.549-1.252 7.075 7.075 0 011.885-.795A8.07 8.07 0 017.85.847c1.073 0 2.07.227 2.997.68a5.67 5.67 0 012.252 1.972c.578.861.865 1.836.865 2.923 0 .652-.064 1.29-.195 1.913a7.793 7.793 0 01-.608 1.801 6.221 6.221 0 01-1.02 1.523 4.447 4.447 0 01-1.476 1.05c-.607.265-1.263.4-1.926.392-.46 0-.92-.108-1.374-.326-.454-.216-.78-.514-.976-.896-.069.265-.163.648-.288 1.148-.12.499-.202.82-.237.967a20.95 20.95 0 01-.21.722 4.88 4.88 0 01-.264.724l-.324.635c-.14.273-.297.536-.469.79-.17.246-.381.54-.633.88l-.14.05-.093-.102c-.101-1.067-.153-1.706-.153-1.917 0-.624.074-1.325.221-2.102.144-.777.372-1.754.678-2.928.306-1.174.482-1.864.529-2.069-.216-.44-.325-1.014-.325-1.72 0-.564.176-1.093.53-1.59.353-.495.8-.743 1.343-.743.415 0 .737.137.968.413.232.275.345.622.345 1.045 0 .448-.149 1.097-.448 1.946-.3.85-.449 1.483-.449 1.904 0 .426.153.783.458 1.063.301.28.7.432 1.11.423.373 0 .719-.085 1.04-.255.316-.166.59-.402.8-.69.457-.628.782-1.34.957-2.096.09-.397.16-.775.204-1.13.046-.357.066-.694.066-1.014 0-1.175-.373-2.09-1.114-2.746-.745-.655-1.715-.981-2.909-.981-1.357 0-2.492.439-3.4 1.32-.91.877-1.368 1.993-1.368 3.346 0 .299.045.587.131.866.084.278.175.5.274.663.098.161.19.318.274.463.085.145.13.249.13.311 0 .19-.05.438-.151.744-.105.306-.228.459-.377.459-.014 0-.073-.01-.174-.032a2.08 2.08 0 01-.922-.57 2.985 2.985 0 01-.621-.963 6.58 6.58 0 01-.332-1.1 4.6 4.6 0 01-.124-1.086z"/></symbol><symbol id="ic-twitter" viewBox="0 0 18 15"><path d="M17.774 2.178a6.964 6.964 0 01-2 .538A3.464 3.464 0 0017.3.8a6.857 6.857 0 01-2.203.84A3.465 3.465 0 0012.56.541a3.472 3.472 0 00-3.473 3.475c0 .269.033.538.086.796a9.87 9.87 0 01-7.161-3.635 3.448 3.448 0 00-.473 1.754c0 1.205.613 2.268 1.548 2.894a3.503 3.503 0 01-1.57-.442v.042A3.474 3.474 0 004.3 8.836a3.679 3.679 0 01-.915.118 4.62 4.62 0 01-.655-.053 3.48 3.48 0 003.246 2.41 6.96 6.96 0 01-4.312 1.484c-.29 0-.56-.01-.839-.043a9.834 9.834 0 005.334 1.559c6.388 0 9.883-5.292 9.883-9.885 0-.15 0-.301-.01-.452a7.48 7.48 0 001.74-1.796z"/></symbol><symbol id="star" viewBox="0 0 12 11"><path stroke-width="1.2" d="M4.043 3.857l.307-.042.143-.276 1.285-2.477s0 0 0 0l.002-.003.001-.001a.06.06 0 01.028-.006c.015 0 .025.004.03.007l.002.001h0l.002.003h0l1.284 2.476.143.276.308.042 2.875.399h0l.007.001-2.064 1.914-.242.223.059.323.49 2.708a.058.058 0 01-.025.008c-.008 0-.016 0-.027-.006h0L6.078 8.142l-.269-.134-.268.134L2.97 9.427l-.002.001a.045.045 0 01-.026.006.056.056 0 01-.024-.008l.49-2.709.058-.323-.241-.223L1.16 4.257l.008-.001h0l2.875-.399zM8.705 9.44l.59-.107c.089.492-.456.86-.913.631l.323-.524z"/></symbol></svg>