<svg width="11" height="11" viewBox="0 0 11 11" fill="none" xmlns="http://www.w3.org/2000/svg">
<path d="M3.93838 3.85733L4.24574 3.81471L4.38861 3.53926L5.67347 1.06195C5.67349 1.06191 5.67351 1.06187 5.67353 1.06183C5.67509 1.05886 5.67585 1.0583 5.67544 1.05872C5.67517 1.05899 5.67538 1.05866 5.67678 1.05787C5.68029 1.0559 5.68991 1.0521 5.7046 1.05215C5.71933 1.05219 5.72986 1.0561 5.73453 1.05874L5.73651 1.06001L5.73694 1.06037L5.73698 1.06042L5.73715 1.06064L5.73845 1.06282L5.73846 1.06284L7.02286 3.53926L7.16573 3.81471L7.47309 3.85733L10.3481 4.2559L10.3485 4.25596C10.3513 4.25634 10.3537 4.25678 10.3558 4.25724L8.29098 6.17058L8.04992 6.39396L8.10835 6.71737L8.5976 9.42506C8.59025 9.42955 8.5814 9.43251 8.57308 9.43324C8.56594 9.43387 8.5577 9.43316 8.54603 9.42733L8.54594 9.42728L5.97399 8.14173L5.70573 8.00764L5.43748 8.14173L2.86553 9.42728L2.86368 9.42821C2.85223 9.43398 2.84447 9.43456 2.83793 9.43399C2.82992 9.43329 2.82112 9.43035 2.81375 9.42572L3.30312 6.71737L3.36155 6.39396L3.12049 6.17058L1.05567 4.25724C1.05777 4.25678 1.06019 4.25634 1.06297 4.25596L1.06339 4.2559L3.93838 3.85733ZM8.60032 9.44004L9.19075 9.33336C9.2793 9.8255 8.73421 10.1923 8.27768 9.96397L8.60032 9.44004Z" fill="white" stroke="#7AC751" stroke-width="1.2"/>
</svg>
